<?xml version="1.0" encoding="UTF-8" standalone="no"?>
<!-- Page 1 -->

<svg
   xmlns:dc="http://purl.org/dc/elements/1.1/"
   xmlns:cc="http://creativecommons.org/ns#"
   xmlns:rdf="http://www.w3.org/1999/02/22-rdf-syntax-ns#"
   xmlns:svg="http://www.w3.org/2000/svg"
   xmlns="http://www.w3.org/2000/svg"
   xmlns:sodipodi="http://sodipodi.sourceforge.net/DTD/sodipodi-0.dtd"
   xmlns:inkscape="http://www.inkscape.org/namespaces/inkscape"
   x="0"
   y="0"
   width="935"
   height="1210"
   viewBox="0 0 935 1210"
   version="1.1"
   style="display: block;margin-left: auto;margin-right: auto;"
   id="svg92"
   sodipodi:docname="classic car2.svg"
   inkscape:version="0.92.4 (5da689c313, 2019-01-14)">
  <metadata
     id="metadata96">
    <rdf:RDF>
      <cc:Work
         rdf:about="">
        <dc:format>image/svg+xml</dc:format>
        <dc:type
           rdf:resource="http://purl.org/dc/dcmitype/StillImage" />
        <dc:title></dc:title>
      </cc:Work>
    </rdf:RDF>
  </metadata>
  <sodipodi:namedview
     pagecolor="#ffffff"
     bordercolor="#666666"
     borderopacity="1"
     objecttolerance="10"
     gridtolerance="10"
     guidetolerance="10"
     inkscape:pageopacity="0"
     inkscape:pageshadow="2"
     inkscape:window-width="1920"
     inkscape:window-height="1001"
     id="namedview94"
     showgrid="false"
     inkscape:zoom="0.31541838"
     inkscape:cx="304.82724"
     inkscape:cy="470.19812"
     inkscape:window-x="-9"
     inkscape:window-y="-9"
     inkscape:window-maximized="1"
     inkscape:current-layer="svg92" />
  <defs
     id="defs7">
    <clipPath
       id="c0_1">
      <path
         d="M0,1210V0H935V1210Z"
         id="path2" />
    </clipPath>
    <style
       type="text/css"
       id="style5"><![CDATA[
text { white-space: pre; }
path, image { pointer-events: none; }
text::-moz-selection {
	color: transparent;
	background: rgba(0, 106, 173, 0.4);
}
text::selection {
	color: transparent;
	background: rgba(0, 106, 173, 0.4);
}

.s1_1{
font-size: 16.87px;
font-family: Verdana_5;
fill: TRANSPARENT;
}


]]></style>
  </defs>
  <defs
     id="defs88">
    <path
       d="M630,-20c0,0,-121,0,-220,33c0,0,-99,34,-172,107c0,0,-71,71,-112,180c0,0,-40,109,-40,254c0,0,0,138,39,246c0,0,39,108,112,183c0,0,71,72,171,110c0,0,100,38,222,38c0,0,90,0,179,-21c0,0,89,-22,198,-76V858H996c0,0,-92,77,-182,112c0,0,-90,35,-193,35c0,0,-85,0,-152,-27c0,0,-68,-27,-121,-85c0,0,-51,-56,-80,-141c0,0,-28,-86,-28,-198c0,0,0,-117,31,-202c0,0,32,-84,82,-137c0,0,52,-55,122,-82c0,0,70,-26,147,-26c0,0,107,0,200,36c0,0,93,37,175,110h10V80c0,0,-41,-18,-74,-33c0,0,-33,-16,-87,-33C846,14,801,0,747,-9c0,0,-53,-11,-117,-11Z"
       id="f0_13"
       transform="scale(0.001,-0.001)" />
    <path
       d="M140,0V1161H280V0Z"
       id="f0_28"
       transform="scale(0.001,-0.001)" />
    <path
       d="M397,107c0,0,74,0,135,28c0,0,62,29,114,70V437c0,0,-64,-4,-151,-11c0,0,-87,-8,-138,-22c0,0,-60,-17,-98,-53c0,0,-37,-37,-37,-100c0,0,0,-72,43,-108c0,0,44,-36,132,-36ZM347,-22c0,0,-113,0,-191,73c0,0,-79,75,-79,190c0,0,0,95,41,154c0,0,41,58,116,92c0,0,76,34,183,46c0,0,106,12,229,17v22c0,0,0,48,-17,79c0,0,-17,31,-48,49c0,0,-30,18,-72,23c0,0,-41,6,-87,6c0,0,-55,0,-123,-14c0,0,-68,-15,-140,-42h-7V815c0,0,41,12,118,25c0,0,78,14,153,14c0,0,88,0,153,-15c0,0,66,-15,113,-50c0,0,47,-34,72,-88c0,0,25,-55,25,-135V0H646V89c0,0,-19,-13,-51,-36c0,0,-31,-23,-61,-36c0,0,-35,-17,-81,-28c0,0,-45,-11,-106,-11Z"
       id="f0_1x"
       transform="scale(0.001,-0.001)" />
    <path
       d="M381,-20c0,0,-92,0,-169,21C212,1,134,24,82,50V207h8c0,0,66,-50,147,-80c0,0,82,-29,157,-29c0,0,92,0,144,30c0,0,53,30,53,94c0,0,0,49,-29,75c0,0,-28,25,-109,43c0,0,-30,7,-78,16c0,0,-48,9,-87,19c0,0,-110,29,-156,86c0,0,-46,56,-46,138c0,0,0,52,21,97c0,0,22,46,65,81c0,0,42,36,106,56c0,0,65,21,145,21c0,0,74,0,151,-19c0,0,76,-18,127,-44V641h-7c0,0,-54,40,-131,67c0,0,-77,27,-151,27c0,0,-77,0,-130,-29c0,0,-53,-30,-53,-88c0,0,0,-52,32,-78c0,0,31,-26,101,-42c0,0,39,-9,87,-18c0,0,49,-9,81,-17c0,0,97,-22,150,-77c0,0,53,-55,53,-146c0,0,0,-114,-94,-187c0,0,-94,-73,-258,-73Z"
       id="f0_2f"
       transform="scale(0.001,-0.001)" />
    <path
       d="M140,0V833H280V0Zm-9,973v146H288V973Z"
       id="f0_25"
       transform="scale(0.001,-0.001)" />
    <path
       d="M487,-18c0,0,-90,0,-165,26c0,0,-75,26,-129,80c0,0,-54,54,-84,136c0,0,-30,82,-30,192c0,0,0,204,112,320c0,0,112,117,296,117c0,0,72,0,141,-20c0,0,69,-21,126,-50V628h-8c0,0,-64,49,-132,76c0,0,-68,26,-133,26c0,0,-119,0,-188,-80c0,0,-69,-80,-69,-234c0,0,0,-151,67,-232c0,0,68,-80,190,-80c0,0,43,0,87,11c0,0,44,11,79,29c0,0,30,15,57,32c0,0,27,18,42,30h8V52C754,52,684,19,621,0c0,0,-63,-18,-134,-18Z"
       id="f0_1z"
       transform="scale(0.001,-0.001)" />
    <path
       d="M138,0V833H278V710c0,0,83,67,147,95c0,0,64,28,131,28c0,0,36,0,53,-2c0,0,16,-2,49,-7V681h-7c0,0,-32,7,-61,10c0,0,-30,3,-70,3c0,0,-65,0,-126,-28c0,0,-60,-29,-116,-75V0Z"
       id="f0_2e"
       transform="scale(0.001,-0.001)" />
    <path
       d="M150,0V1111H881V980H297V675H881V544H297V131H881V0Z"
       id="f0_15"
       transform="scale(0.001,-0.001)" />
    <path
       d="M46,0L370,415L49,833H225L460,518L695,833H858L532,423L858,0H682L446,320L210,0Z"
       id="f0_2k"
       transform="scale(0.001,-0.001)" />
    <path
       d="M478,110c0,0,117,0,183,79c0,0,66,79,66,234c0,0,0,150,-52,225c0,0,-51,75,-158,75c0,0,-61,0,-122,-27c0,0,-61,-26,-117,-68V156c0,0,59,-27,102,-37c0,0,43,-9,98,-9ZM138,-306V833H278V746c0,0,56,47,126,79c0,0,69,32,149,32c0,0,151,0,235,-114c0,0,84,-114,84,-316c0,0,0,-102,-29,-186c0,0,-30,-84,-83,-142C760,99,711,44,644,14c0,0,-67,-30,-141,-30c0,0,-65,0,-118,15c0,0,-53,13,-107,43V-306Z"
       id="f0_2c"
       transform="scale(0.001,-0.001)" />
    <path
       d="M699,510c0,0,-1,111,-56,171c0,0,-54,60,-166,60c0,0,-113,0,-179,-66c0,0,-67,-66,-76,-165ZM519,-18c0,0,-207,0,-323,112C196,94,79,206,79,412c0,0,0,205,112,325c0,0,111,120,293,120c0,0,169,0,260,-99c0,0,92,-98,92,-279V403H222c0,0,0,-77,23,-134c0,0,23,-57,63,-94c0,0,39,-36,93,-53c0,0,53,-18,117,-18c0,0,85,0,171,34c0,0,86,34,123,66h7V52C819,52,748,22,675,2c0,0,-74,-20,-156,-20Z"
       id="f0_21"
       transform="scale(0.001,-0.001)" />
    <path
       d="M401,-16c0,0,-127,0,-194,68c0,0,-66,69,-66,220V715H46V833h95v240H281V833H571V715H281V335c0,0,0,-66,3,-103c0,0,3,-37,21,-69c0,0,16,-30,45,-44c0,0,29,-13,88,-13c0,0,34,0,71,10c0,0,38,9,54,16h8V7c0,0,-40,-9,-86,-16c0,0,-47,-7,-84,-7Z"
       id="f0_2g"
       transform="scale(0.001,-0.001)" />
    <path
       d="M422,540c0,0,89,0,145,16c0,0,56,16,91,51c0,0,35,36,49,75c0,0,15,40,15,89c0,0,0,57,-20,100c0,0,-20,43,-61,69c0,0,-36,24,-82,34c0,0,-46,10,-116,10H297V540ZM150,0V1111H451c0,0,99,0,169,-17c0,0,69,-17,123,-53c0,0,63,-42,98,-106c0,0,34,-63,34,-160c0,0,0,-74,-25,-137c0,0,-26,-63,-72,-109c0,0,-58,-58,-136,-87c0,0,-78,-28,-197,-28H297V0Z"
       id="f0_1g"
       transform="scale(0.001,-0.001)" />
    <path
       d="M438,142c0,0,61,0,123,23c0,0,62,24,113,63V683c0,0,-56,26,-104,37c0,0,-48,10,-96,10c0,0,-116,0,-183,-77c0,0,-66,-78,-66,-226c0,0,0,-140,49,-213c0,0,50,-72,164,-72ZM421,-314c0,0,-66,0,-129,9c0,0,-64,10,-125,27v143h8c0,0,34,-13,109,-33c0,0,75,-20,149,-20c0,0,72,0,119,17c0,0,47,17,74,48c0,0,26,29,37,70c0,0,11,40,11,90v76c0,0,-63,-51,-121,-76C553,37,495,12,405,12c0,0,-149,0,-237,108c0,0,-88,108,-88,304c0,0,0,108,30,186c0,0,31,78,83,134c0,0,49,54,118,83c0,0,70,30,138,30c0,0,73,0,122,-15c0,0,49,-15,103,-44l9,35H814V95c0,0,0,-211,-96,-310c0,0,-97,-99,-297,-99Z"
       id="f0_23"
       transform="scale(0.001,-0.001)" />
    <path
       d="M207,0V113H439V858H207V959c0,0,47,0,101,8c0,0,54,8,82,23c0,0,34,19,54,47c0,0,20,29,23,78H582V113H809V0Z"
       id="f0_l"
       transform="scale(0.001,-0.001)" />
  </defs>
  <!-- Any embedded fonts defined here -->
  <style
     type="text/css"
     id="style90"><![CDATA[

@font-face {
	font-family: Verdana_5;
	src: url("fonts/Verdana_5.woff") format("woff");
}

]]></style>
  <path
     style="display:block;fill:#000000"
     d="m 635.20894,336.32328 c -10.6626,0.061 -12.8554,0.5138 -71.5,14.7695 -60.9984,14.8278 -119.057,28.8412 -236.5,57.0821 -101.9523,24.5159 -108.3413,26.1516 -114.9101,29.4062 -16.4607,8.1555 -29.3621,24.9038 -33.1992,43.0996 -2.0355,9.6517 -1.5001,19.0651 2.4746,43.5 1.6998,10.45 4.6861,29.125 6.6367,41.5 1.9505,12.375 3.7897,23.7024 4.0859,25.1738 0.4822,2.3955 0.064,2.8854 -3.9922,4.6797 -4.5214,2.0001 -14.5957,10.5508 -14.5957,12.3887 0,0.5335 0.7875,0.6608 1.75,0.2812 4.3384,-1.7108 49.0988,-16.3567 71.75,-23.4765 41.389,-13.0095 40.2119,-12.7532 64.5,-14.0195 11.825,-0.6166 26.675,-1.5431 33,-2.0606 21.208,-1.7354 82.1624,-5.1185 83.4336,-4.6308 0.8476,0.3253 1.4544,4.0122 1.8613,11.3222 0.6168,11.0838 2.8794,21.3353 6.4766,29.3418 l 2.0215,4.5 1.6914,-3.9258 c 4.5499,-10.5661 7.4571,-24.4619 7.4961,-35.8242 0.018,-5.3571 0.1799,-5.75 2.3613,-5.75 4.0366,0 69.5684,3.9552 82.1582,4.959 6.6,0.5262 21.45,1.4589 33,2.0723 26.7611,1.4213 24.2078,0.7754 97,24.5136 21.45,6.9951 39.675,12.9483 40.5,13.2285 0.825,0.2802 -0.9343,-2.0037 -3.9101,-5.0761 -4.2751,-4.4137 -7.5807,-6.5837 -15.75,-10.3418 -5.6867,-2.616 -10.3399,-5.2749 -10.3399,-5.9082 0,-0.6334 2.7095,-20.9069 6.0196,-45.0508 3.3102,-24.1439 8.0531,-58.9715 10.541,-77.3965 2.4879,-18.4249 5.4054,-39.7876 6.4824,-47.4726 2.4555,-17.5242 2.4601,-24.242 0.025,-33.7618 -5.676,-22.1928 -21.5756,-38.7391 -43.6113,-45.3867 -4.2571,-1.2843 -9.0964,-1.7803 -16.9571,-1.7363 z m -1.0781,22.3496 c 1.3075,5e-4 2.4065,0.1308 4.0762,0.2227 10.1581,0.5588 17.9057,4.0672 25.2988,11.455 8.6799,8.6737 12.8068,21.1552 11.1855,33.8301 -4.4115,34.4877 -23.7085,174.5591 -24.0996,174.9336 -0.2109,0.202 -10.5078,-2.9423 -22.8828,-6.9863 -12.375,-4.044 -25.8374,-8.3867 -29.916,-9.6504 l -7.4141,-2.2969 -4.6933,-12.5 c -6.7287,-17.9252 -6.5215,-17.0044 -3.793,-16.9844 1.2746,0.01 3.3767,1.1345 4.6719,2.5 5.13,5.4083 14.1445,1.575 14.1445,-6.0156 0,-7.6929 -9.3065,-11.5098 -14.4726,-5.9355 -1.8793,2.0278 -3.1505,2.4989 -6.0703,2.25 -3.1862,-0.2717 -3.8731,-0.7948 -5.0137,-3.8145 -8.3848,-22.1979 -9.5054,-24.6071 -12.1817,-26.1836 -3.8687,-2.2788 -19.8906,-6.4133 -31.7617,-8.1972 -24.9626,-3.7512 -33.3689,-4.1192 -94,-4.1192 -51.3717,0 -62.0851,0.2546 -74.5,1.7754 -28.1998,3.4545 -46.7612,7.908 -50.5801,12.1367 -1.1442,1.2669 -4.2849,8.2175 -6.9804,15.4453 l -4.9024,13.1426 h -3.373 c -2.1404,0 -4.4611,-0.9142 -6.3457,-2.5 -4.2663,-3.5898 -8.9067,-3.3716 -12.2285,0.5762 -3.2771,3.8946 -3.2771,6.951 0,10.8457 3.3484,3.9794 7.9603,4.1695 12.3144,0.5058 1.6813,-1.4147 3.8976,-2.4272 4.9258,-2.25 1.6982,0.2926 1.3642,1.6712 -3.6348,15.045 l -5.5039,14.7246 -5.5957,1.5488 c -3.0779,0.8526 -16.6207,5.154 -30.0957,9.5566 -13.475,4.4026 -27.2399,9.0688 -30.5879,10.3692 l -6.0859,2.3633 -1.1289,-7.1426 c -0.6208,-3.9287 -2.7348,-17.2676 -4.6973,-29.6426 -9.4395,-59.5235 -8.7624,-53.6314 -7.0976,-61.7949 2.4986,-12.2522 9.2404,-21.605 19.5273,-27.0879 4.775,-2.5451 17.9999,-6.0783 66.2676,-17.709 147.7721,-35.6074 169.3373,-40.8032 186.3027,-44.8828 9.9,-2.3806 40.725,-9.8053 68.5,-16.5 77.1516,-18.5963 86.7561,-21.0353 92.4219,-21.0332 z m -300.2324,134.4473 c 0.3263,-0.028 0.5227,-0.03 0.5566,0 0.1356,0.1205 -1.5591,5.0142 -3.7676,10.875 -2.2086,5.8607 -5.5932,16.1746 -7.5214,22.9199 -1.9282,6.7452 -3.6491,12.7156 -3.8243,13.2656 -0.8331,2.6152 -1.9859,-4.8987 -1.9179,-12.5 0.073,-8.0942 2.6053,-26.0819 4.3008,-30.541 0.6028,-1.5859 2.2079,-2.3499 6.6406,-3.1641 2.4109,-0.4428 4.5543,-0.7705 5.5332,-0.8554 z m 129.3105,0.5586 14.5,0.01 c 16.9596,0.01 32.307,1.2224 50.7696,4.0137 15.9563,2.4124 23.0517,3.8806 23.6796,4.8965 0.4715,0.763 7.7682,36.9446 9.0411,44.832 0.3764,2.3356 0.3082,4.2338 -0.1524,4.2188 -0.4608,-0.015 -2.502,-1.2865 -4.5351,-2.8262 -12.2503,-9.2775 -36.7211,-15.1078 -51.4414,-12.2559 l -4.1387,0.8008 -0.5313,-3.9629 c -1.5957,-11.8969 -12.7675,-25.5512 -28.2636,-34.5449 z m 52,57.5293 c 7.9002,-0.01 9.6416,0.3273 14.25,2.748 2.8875,1.5167 5.25,2.9744 5.25,3.2402 0,0.2657 -8.55,0.4844 -19,0.4844 -10.45,0 -19,-0.4012 -19,-0.8906 0,-0.4895 2.1375,-1.9433 4.75,-3.2305 3.9068,-1.9248 6.3477,-2.3415 13.75,-2.3515 z m -8.3398,25.8359 c -1.5294,0.014 -1.8546,0.091 -1.1602,0.2246 32.3885,6.2422 47,10.8685 47,14.8828 0,2.4278 -6.3874,6.4552 -15.1328,9.5391 l -8.3672,2.9492 12,0.1602 c 6.6,0.088 21.45,0.4634 33,0.8339 v 0 c 35.2504,1.1274 42.5,1.1279 42.5,0 0,-2.2937 -16.8156,-17.8335 -23.5,-21.7168 l -7,-4.0664 -28,-1.0996 c -31.3183,-1.2294 -46.7517,-1.7522 -51.3398,-1.7109 z m 102.8496,10.4512 9.8418,9.8437 c 5.4126,5.4135 10.6283,11.3681 11.5918,13.2324 l 1.7519,3.3887 -29.8476,-0.6992 c -16.4163,-0.385 -46.9477,-1.1154 -67.8477,-1.6231 -20.9,-0.5078 -43.9636,-0.9294 -51.2539,-0.9394 l -13.2558,-0.018 0.5273,-10.25 c 0.5458,-10.5977 0.2661,-10.7299 -3.0254,-1.4375 -2.4422,6.8944 -7.2505,12.6871 -12.9746,15.6328 -4.5458,2.3394 -6.0191,2.5547 -17.4902,2.5547 -11.0958,0 -13.0677,-0.2654 -17.2559,-2.3281 -5.9426,-2.9267 -10.2037,-8.2629 -13.9512,-17.4727 l -2.9296,-7.1992 0.5136,10.25 0.5117,10.25 h -45.207 c -24.8645,9e-4 -60.4518,0.3015 -79.082,0.666 l -33.8731,0.6621 1.1602,-2.166 c 0.6378,-1.1917 3.9555,-5.1924 7.373,-8.8887 6.0003,-6.4897 6.0585,-6.6028 1.7129,-3.3222 -7.6292,5.7595 -11.0858,9.3665 -13.4648,14.0488 -2.6544,5.2246 -4.5352,13.2633 -4.5352,19.3867 v 4.2891 l 207.75,-0.088 c 214.5888,-0.091 226.0021,0.093 244.6094,3.9336 7.7154,1.5923 14.347,5.0711 17.8105,9.3418 3.0868,3.8062 3.4248,3.2236 0.9473,-1.6328 -2.7341,-5.3592 -6.7536,-9.9902 -10.2324,-11.7891 -4.5034,-2.3288 -20.7862,-4.4337 -39.6172,-5.1211 -14.5803,-0.5323 -17.2981,-0.8749 -17.6641,-2.2246 -0.2379,-0.8773 -1.1604,-4.9707 -2.0507,-9.0957 -2.5049,-11.6064 -9.3949,-19.3813 -24.7969,-27.9785 z m 47.4394,12.5332 c -0.082,0 -0.1352,0 -0.1562,0.025 -0.2067,0.2067 5.3366,3.4738 12.3184,7.2617 10.6695,5.7888 13.3101,6.8304 16.5488,6.5215 2.1193,-0.2021 4.0561,-0.6973 4.3047,-1.0996 0.4508,-0.7295 -30.4703,-12.5813 -33.0157,-12.709 z m -17.3925,0.5644 3.4804,5.2832 c 1.9143,2.9067 3.7321,6.0774 4.0391,7.0449 0.4134,1.3024 1.625,1.7598 4.666,1.7598 h 4.1074 l -2.3125,-2.4609 c -1.2709,-1.3528 -4.9353,-4.5217 -8.1445,-7.043 z m 15.6464,4.2168 c -0.3177,0.1763 1.1139,1.6153 3.8809,4.2227 5.1076,4.8128 6.4613,5.5793 9.9004,5.6113 l 3.9844,0.037 -6.9844,-4.0937 c -7.073,-4.1449 -10.3727,-6.0041 -10.7813,-5.7774 z m 43.2872,15.4981 c -0.9606,0.019 -3.6351,1.016 -6.4414,2.4316 -4.3475,2.1929 -5.2221,2.9514 -3.4395,2.9844 1.315,0.024 4.6406,0.8648 7.3906,1.8672 6.2495,2.278 6.5,2.3176 6.5,1.0566 0,-1.6291 -2.6996,-7.6644 -3.707,-8.2871 -0.063,-0.039 -0.1655,-0.055 -0.3027,-0.053 z m -535.377,6.1679 c -0.3167,-0.2993 -3.9515,8.3215 -6.668,16.0176 l -2.9843,8.459 8.1328,25.9629 c 7.3104,23.33808 8.0876,26.58028 7.6914,32.05658 -0.276,3.8156 -0.9311,6.257 -1.7539,6.5313 -3.1241,1.0414 -9.1784,7.793 -11.6719,13.0156 -4.1449,8.6817 -4.4706,19.6463 -0.9082,30.5977 1.4891,4.5777 4.9236,12.0505 7.6328,16.6054 2.7092,4.5549 4.8121,8.3687 4.6719,8.4746 -0.1402,0.1059 -3.8559,0.758 -8.2559,1.4493 -10.1949,1.602 -19.88,4.5818 -21.5918,6.6445 -1.1295,1.3609 -1.0487,1.8129 0.5293,2.9668 5.0658,3.7042 24.5782,7.4337 51.9961,9.9375 23.3146,2.129 130.7026,7.8887 147.6884,8.6755 105.2327,4.8746 220.477,-2.1514 328.628,-6.6599 59.2902,-5.52 81.1803,-10.9018 68.6504,-16.8769 -2.0172,-0.9619 -8.7205,-2.7202 -14.8965,-3.9082 l -11.2285,-2.1602 4.0098,-6.543 c 9.116,-14.8764 12.9148,-28.4842 10.9316,-39.1484 -1.8792,-10.1047 -6.1362,-17.1838 -13.4844,-22.4219 -2.1909,-1.5619 -2.8887,-3.0148 -3.3457,-6.9726 -0.5035,-4.3611 0.4565,-8.2872 7.5176,-30.74808 4.4522,-14.162 8.0957,-26.6318 8.0957,-27.7109 0,-2.272 -8.1251,-24.2499 -8.7383,-23.6367 -0.2254,0.2255 0.7485,5.1253 2.1641,10.8886 3.0973,12.61 3.1428,13.7462 0.5742,14.418 -1.3171,0.3444 -2,1.3645 -2,2.9863 0,1.3545 -1.0934,5.239 -2.4297,8.6328 -9.7915,24.8671 -11.5257,31.53478 -11.5527,44.41998 l -0.018,8.25 h -6.5957 c -4.8329,0 -7.305,0.5014 -9.25,1.873 -10.4243,7.3508 -22.0241,10.1228 -42.3613,10.1328 -17.8405,0.01 -51.6542,1.5549 -75.293,3.4473 -47.535,3.8052 -114.583,6.5469 -160.1074,6.5469 h -39.3926 v 4.3437 4.3438 l -21.75,0.6621 c -11.9625,0.3635 -28.725,0.9871 -37.25,1.3867 l -15.5,0.7266 27.5,1.1718 c 15.125,0.6448 31.1,1.2289 35.5,1.2989 4.9347,0.078 7.4253,0.4512 6.5,0.9726 -0.825,0.4649 -12.3,1.1734 -25.5,1.5742 -13.2,0.4009 -28.05,1.0283 -33,1.3946 -8.1927,0.6063 -7.1612,0.7333 11.5,1.4101 53.8302,1.9525 58.2512,3.0007 18.0117,4.2715 -25.9912,0.8208 -37.5163,2.0814 -22.0117,2.4082 5.225,0.1102 19.845,0.727 32.4883,1.3691 19.9462,1.0128 23.0296,1.3836 23.3027,2.8086 0.2767,1.4441 -1.5317,1.7156 -14.9882,2.2559 -70.0235,2.8113 -142.0248,4.062 -161.0411,2.7969 -12.2366,-0.814 -14.1632,-1.1942 -17.6269,-3.4864 -5.682,-3.7602 -9.1348,-11.2231 -9.1348,-19.7441 0,-6.0959 -0.2039,-6.7358 -2.4726,-7.7695 -5.0046,-2.2802 -4.0433,-7.9342 2.7949,-16.4453 2.5164,-3.132 3.631,-3.75 6.7656,-3.75 h 3.7539 l 0.7012,-6.5606 c 1.4194,-13.2541 -1.2345,-25.6697 -10.668,-49.88278 -2.1307,-5.4689 -3.875,-10.7078 -3.875,-11.6426 0,-0.9347 -0.675,-1.9588 -1.5,-2.2754 -2.3893,-0.9169 -2.097,-3.3355 3.0332,-25.1386 0.1025,-0.4356 0.1254,-0.6604 0.08,-0.7032 z m 209.5098,16.5313 c -81.9185,-0.022 -150.9388,0.1754 -163.1231,0.6758 -16.2316,0.6666 -21.8769,1.2733 -27.1113,2.916 -5.7571,1.8068 -11.8887,5.9461 -11.8887,8.0254 0,0.3697 1.3527,4.3784 3.0059,8.9082 1.6531,4.5297 3.422,10.1284 3.9316,12.4414 1.2875,5.8445 4.0625,27.78668 4.0625,32.12498 v 3.5801 h 5.541 c 3.7171,0 6.925,0.7135 9.75,2.166 2.3156,1.1906 6.009,2.7613 8.209,3.4922 2.6485,0.8798 7.7166,1.2201 15,1.0078 10.2353,-0.2984 11.5484,-0.5747 18.8907,-3.9922 l 7.8906,-3.6738 h 191.4668 191.4668 l 6.1425,2.9277 c 9.196,4.3816 14.4988,5.3949 25.4571,4.8672 8.271,-0.3982 10.7002,-0.9374 16.3437,-3.6309 4.7389,-2.2616 8.0708,-3.164 11.6895,-3.164 5.8739,0 5.2492,1.6174 7.1094,-18.418 1.1459,-12.34178 4.6844,-26.99778 8.164,-33.81838 1.8807,-3.6865 1.902,-4.0781 0.3574,-6.4355 -2.049,-3.1272 -10.426,-6.9066 -18.6953,-8.4336 -4.7701,-0.8809 -177.1294,-1.5293 -313.6601,-1.5664 z m 287.8789,6.1308 c 11.2474,0.2202 22.1027,6.9105 27.1855,18.0411 3.3327,7.2983 3.1539,18.1491 -0.4121,24.99998 -3.1349,6.0226 -8.6876,11.4932 -14.7461,14.5273 -4.7746,2.3911 -15.6067,3.7106 -17.8496,2.1738 -0.901,-0.6175 0.2751,-1.0938 3.7051,-1.5 5.7285,-0.6785 8.838,-2.369 14.8496,-8.0703 5.4477,-5.1667 7.7032,-11.60208 7.0254,-20.04688 -0.7912,-9.8567 -5.846,-17.3536 -15.0234,-22.2851 -4.6737,-2.5115 -16.9328,-2.4289 -22.2364,0.1504 -2.2,1.0699 -4.45,2.1427 -5,2.3847 -0.55,0.2419 0.099,-0.7546 1.4414,-2.2148 1.3425,-1.4602 4.9425,-3.8552 8,-5.3242 4.199,-2.0175 8.6594,-2.9221 13.0606,-2.836 z m -444.502,0.1094 c 7.9389,-0.076 13.7245,1.8586 19.6934,6.586 5.2667,4.1713 4.766,5.2462 -0.9434,2.0253 -3.9973,-2.255 -5.9384,-2.6762 -12.25,-2.6562 -8.4561,0.026 -13.3808,2.0116 -19.0469,7.6777 -7.9695,7.9696 -9.8017,21.0596 -4.3183,30.85548 4.0949,7.3155 12.1647,13.0266 19.3887,13.7207 3.3542,0.3224 4.6879,0.7914 3.8164,1.3438 -1.5905,1.0079 -9.1124,0.9752 -13.3399,-0.059 -9.1308,-2.2327 -18.142,-10.4592 -21.0508,-19.2168 -2.0769,-6.25288 -1.6226,-17.78928 0.9063,-22.99028 5.2329,-10.7617 15.3018,-17.1735 27.1445,-17.2871 z m 376.5,2.4317 17.75,0.027 17.75,0.027 -3.5,2.9473 -3.5,2.9453 -14.25,0.027 -14.25,0.025 v -3 z m -309,0 v 3 3 l -14.25,-0.039 c -9.8715,-0.026 -14.5749,-0.4104 -15.3066,-1.25 -0.581,-0.6666 -2.156,-1.9746 -3.5,-2.9083 -2.34,-1.6255 -1.69,-1.7 15.3066,-1.75 z m 12,0 h 18.5 18.5 v 3 3 h -18.5 -18.5 v -3 z m 50,0 h 18.5 18.5 v 3 3 h -18.5 -18.5 v -3 z m 50,0 h 18.5 18.5 v 3 3 h -18.5 -18.5 v -3 z m 49,0 h 18 18 v 3 3 h -18 -18 v -3 z m 50,0 h 18 18 v 3 3 h -18 -18 v -3 z m 50,0 h 18.5 18.5 v 3 3 h -18.5 -18.5 v -3 z m -320.6621,7.7754 c 6.8522,-0.025 13.2923,3.6157 16.6719,10.2402 5.2665,10.3233 -0.6522,23.84598 -11.791,26.93948 -4.7294,1.3135 -5.8471,1.2654 -10.6602,-0.4492 -9.1033,-3.2429 -14.0736,-10.49118 -13.2148,-19.27538 0.6202,-6.3446 3.5264,-11.3706 8.2676,-14.3008 3.4358,-2.1234 7.1373,-3.1414 10.7265,-3.1543 z m 426.0606,0.2949 c 0.9969,-0.017 2.1927,0.032 3.7129,0.1153 5.4013,0.2966 7.2945,0.8846 10.3574,3.2207 6.3922,4.8752 9.2827,14.8294 6.4687,22.2773 -1.2833,3.3966 -5.5155,8.02338 -8.9375,9.77148 -10.9481,5.5926 -24.2414,-0.6507 -26.9297,-12.64648 -1.7943,-8.0063 0.9314,-14.613 8.2168,-19.918 2.9071,-2.1168 4.1204,-2.7679 7.1114,-2.8203 z m -425.0039,5.8614 c -2.613,-0.013 -5.3102,0.9361 -7.6289,3.0625 l -3.2657,2.9941 3.3067,-1.5957 c 7.3568,-3.5514 16.1933,1.7573 16.1933,9.7285 0,3.4216 0.25,4.0273 1.25,3.0273 0.6875,-0.6875 1.2442,-3.1392 1.2442,-5.4492 -0.01,-7.0534 -5.3511,-11.7389 -11.0996,-11.7675 z m 319.6054,0.021 18.25,0.2735 18.25,0.2734 0.3164,2.75 0.3164,2.75 h -18.5664 -18.5664 v -3.0234 z m -273.5,0.047 h 12.5 v 3 3 h -11.8828 c -11.4781,0 -11.9039,-0.077 -12.4863,-2.25 -0.3316,-1.2375 -0.6072,-2.5875 -0.6172,-3 -0.01,-0.4125 5.6113,-0.75 12.4863,-0.75 z m 24.5,0 h 18.5 18.5 v 3 3 h -18.5 -18.5 v -3 z m 50,0 h 18.5 18.5 v 3 3 h -18.5 -18.5 v -3 z m 50,0 h 18.5 18.5 v 3 3 h -18.5 -18.5 v -3 z m 49,0 h 18 18 v 3 3 h -18 -18 v -3 z m 50,0 h 18 18 v 3 3 h -18 -18 v -3 z m 98,0 h 13 c 7.15,0 13,0.1944 13,0.4336 0,0.2392 -0.4382,1.5892 -0.9746,3 -0.9723,2.5551 -1.0124,2.5664 -13,2.5664 h -12.0254 v -3 z m 58.7442,0.1074 c -6.8885,0.2704 -12.3875,6.6852 -10.2071,14.6348 l 0.7559,2.7559 0.7539,-3.377 c 1.7404,-7.7988 7.7553,-12.1228 14.3984,-10.3496 5.189,1.385 5.6297,0.8528 1.418,-1.7148 -2.3714,-1.4458 -4.823,-2.0394 -7.1191,-1.9493 z m -367.7442,13.8262 v 3.5313 3.5332 h -11.5625 -11.5644 l 0.3144,-3.25 0.3125,-3.25 11.25,-0.2832 z m 12,0.02 18.25,0.2735 18.25,0.2715 v 3 3 l -18.25,0.2734 -18.25,0.2715 v -3.5449 z m 137,0 v 3.5235 3.5215 h -18.5625 -18.5644 l 0.3144,-3.25 0.3125,-3.25 18.25,-0.2715 z m 112,0 18.25,0.2735 18.25,0.2734 v 3 3 l -18.25,0.2715 -18.25,0.2734 v -3.5449 z m -100,0.047 h 18 18 v 3.5 3.5 h -18 -18 v -3.5 z m 50,0 h 18 18 v 3.5 3.5 h -18 -18 v -3.5 z m 115.1485,0.1426 c 4.3786,0.02 5.8569,0.3364 5.8652,1.0742 0.01,0.7055 0.2856,2.2957 0.6172,3.5332 0.6012,2.24 0.565,2.25 -11.5781,2.25 h -12.1797 l 0.3144,-3.25 0.3125,-3.25 11.25,-0.2832 c 2.157,-0.054 3.9389,-0.081 5.3985,-0.074 z m -263.6485,0.3555 h 18 18 l 0.3145,3.25 0.3125,3.25 h -18.627 -18.6269 l 0.3144,-3.25 z m -88.125,14.49998 h 12.8125 12.8125 v 3 3 h -15.6875 -15.6875 l 2.875,-3 z m 37.625,0 h 18.5 18.5 v 3 3 h -18.5 -18.5 v -3 z m 50,0 h 18.5 18.5 v 3 3 h -18.5 -18.5 v -3 z m 50,0 h 18.5 18.5 v 3 3 h -18.5 -18.5 v -3 z m 49,0 h 18 18 v 3 3 h -18 -18 v -3 z m 50,0 h 18 18 v 3 3 h -18 -18 v -3 z m 50,0 h 18.5 18.5 v 3 3 h -18.5 -18.5 v -3 z m 48,0 h 13.0762 13.0781 l 3,3 3,3 h -16.0781 -16.0762 v -3 z m -154.2461,25.5234 c -14.6209,0 -29.076,0.3173 -51.7539,0.9609 -52.1969,1.4814 -109.2598,3.4414 -112,3.8477 -0.825,0.1223 19.2,0.8542 44.5,1.6269 25.3,0.7727 54.775,1.6867 65.5,2.0313 33.2961,1.0702 74.1469,1.0416 107.5,-0.076 17.6,-0.5898 50,-1.6484 72,-2.3515 22,-0.7032 37.3948,-1.342 34.211,-1.42 -3.1837,-0.078 -16.6837,-0.5941 -30,-1.1464 -13.3162,-0.5522 -48.061,-1.6716 -77.211,-2.4883 -23.3384,-0.6538 -38.1251,-0.9812 -52.7461,-0.9844 z m 262.3516,2.4766 h 3.8809 c 3.367,0 4.3524,0.5768 7.4472,4.3535 1.9618,2.3942 3.5664,4.6442 3.5664,5 0,1.1295 -7.4011,0.6684 -9.9062,-0.6172 -1.3344,-0.6848 -2.9817,-2.9072 -3.6973,-4.9863 z m -40.6055,12.5839 c 35.587,-0.073 41.9825,0.1447 48.4356,1.6504 8.6271,2.0129 9.6809,2.7471 8.123,5.6582 -1.2201,2.2796 -1.9907,2.4038 -6.539,1.0469 -8.7642,-2.6147 -29.5957,-3.1839 -92.0196,-2.5137 -37.4624,0.4021 -63.5853,0.3184 -63,-0.2031 2.9745,-2.6501 56.7584,-5.5397 105,-5.6387 z m 8.211,9.545 c 5.2349,0.036 9.3462,0.3212 10.539,0.7754 l 2.75,1.0468 v 11.0489 c 0,10.9408 -0.024,11.0597 -2.5644,12.0253 -2.6457,1.0059 -25.7681,1.2347 -28.4356,0.2813 -3.1697,-1.1328 -4,-3.6877 -4,-12.3066 0,-12.5334 -0.1316,-12.4272 16.168,-12.8204 1.9279,-0.047 3.798,-0.063 5.543,-0.051 z m -159.711,1.8711 8.75,0.027 c 4.8125,0.014 23.15,0.6785 40.75,1.4766 17.6,0.7982 33.35,1.5071 35,1.5761 l 3,0.125 -3.3808,0.7989 c -1.86,0.439 -15.279,1.1266 -29.8184,1.5293 -14.5395,0.4027 -26.0666,1.0653 -25.6172,1.4707 0.4494,0.4053 13.6414,1.2876 29.3164,1.9609 15.675,0.6733 28.629,1.3477 28.7852,1.4981 0.673,0.6476 -15.0459,1.5374 -38.1445,2.1621 -13.6729,0.3698 -24.248,1.0035 -23.5,1.4082 0.7477,0.4046 12.1593,1.0636 25.3593,1.4648 13.2,0.4013 26.925,1.0419 30.5,1.4219 6.0327,0.6412 5.5295,0.7392 -7,1.375 -7.425,0.3768 -24.3,1.1395 -37.5,1.6953 v 0 c -13.2,0.5558 -26.8125,1.0101 -30.25,1.0098 h -6.25 v -10.5 z m 183.5,0.7031 6.1055,0.6191 c 3.3576,0.34 7.33,1.0829 8.8281,1.6524 2.4347,0.9257 2.6496,1.3806 2.0235,4.2812 -1.1232,5.2039 -4.173,10.4066 -7.4805,12.7617 -3.0475,2.1701 -9.912,3.7436 -11.0938,2.543 -0.3392,-0.3445 0.9547,-2.1968 2.875,-4.1172 3.2536,-3.2536 3.4601,-3.8329 3.0137,-8.4785 -0.2787,-2.9007 -1.2718,-5.8787 -2.375,-7.123 z m -315.5,0.2969 h 62.0235 62.0234 l -0.2734,17.75 -0.2735,17.75 -61.0761,0.2578 c -33.5916,0.1417 -61.3791,-0.045 -61.75,-0.416 -0.3708,-0.3709 -0.6739,-8.4745 -0.6739,-18.0079 z m -103.4726,38.2812 c 5.7921,-0.027 13.7896,0.061 22.8633,0.2715 l 31.6093,0.7324 v 3.3574 c 0,3.3553 0,3.3581 -4.75,3.2422 -2.6125,-0.064 -5.425,-0.2585 -6.25,-0.4336 -0.825,-0.175 -13.3104,-1.5649 -27.7461,-3.0879 -15.2566,-1.6095 -25.8765,-3.1409 -25.3613,-3.6562 0.2545,-0.2545 3.8426,-0.3983 9.6348,-0.4258 z m 330.0254,0.018 c 6.0814,-10e-4 10.2691,0.094 10.6386,0.3242 0.7538,0.4688 -9.0904,1.9639 -23.1914,3.5215 -13.475,1.4885 -28.1511,3.0136 -32.6133,3.3887 l -8.1132,0.6816 -0.545,-2.8516 c -0.2998,-1.5682 -0.3723,-3.1285 -0.1621,-3.4687 0.445,-0.7199 35.742,-1.5927 53.9864,-1.5957 z"
     id="path905"
     inkscape:connector-curvature="0"
     sodipodi:nodetypes="ccsccccccscsccccccccscccsccscscccccccscscccccsccccssccccscccccsccsccccccsccccccccccccccccccccccccccsssccccscccccscccccccccccccccsccccccccccccscscsccccccccccccccccscccccccccccccssccccccccccssccccscccccccccscscscccscccsccccccccccccsccccccsccsccsscccsccsccscsccccccccccsccccsccccccccccccccccccccccccccccccccccccccccccccccccccccccccccccccccccccccccccccccccccccccccccccccccccccccccccccccccccccsscccccccccccscccsccsccccccccccccccccccccccccccccccccccccccccccccccsscscccccccccccccccccccccccccccccccccccccccccccccccccccccccccccccccccccsccccccccccccccccccccccccccccccccccccccccccccccccccccccccccccccccccccccccccccccccccccccsscsccccccscscscccccccccccccsccsccccccccscscccccccccccccccccccccccccccccscsccsccccssccccccs" />
</svg>
